<svg xmlns="http://www.w3.org/2000/svg" width="282" height="73" viewBox="0 0 282 73">
  <g id="ekloges2023Logo" transform="translate(-50 -14316)">
    <rect id="Rectangle_977" data-name="Rectangle 977" width="282" height="73" transform="translate(50 14316)" fill="none"/>
    <g id="Group_1082" data-name="Group 1082" transform="translate(52.041 14317.36)">
      <g id="Group_1080" data-name="Group 1080" transform="translate(0 0)">
        <g id="Group_1079" data-name="Group 1079">
          <g id="Group_1072" data-name="Group 1072" transform="translate(0 3.598)">
            <path id="Path_140" data-name="Path 140" d="M294.061,202.58H269.6v-1.321a1.55,1.55,0,0,0,1.125-.343c.93-.88.734-5.724.734-6.947V177.384c0-1.174.2-6.018-.734-6.947a1.549,1.549,0,0,0-1.125-.343v-1.272h24.413l.636,5.724h-1.615c-.734-3.376-5.969-3.229-8.611-3.229h-1.272c-1.957,0-3.474.1-4.208,2.1a64.592,64.592,0,0,0-.245,7.045v3.327h4.99c1.908,0,4.4-.245,4.452-2.691h1.517v7.73h-1.517c-.049-2.593-2.837-2.691-4.795-2.691H278.7v7c0,7.241,1.076,6.507,7.828,6.507,3.18,0,6.458.342,7.779-3.18l1.615.587Z" transform="translate(-269.599 -168.577)" fill="#3b56a6"/>
            <path id="Path_141" data-name="Path 141" d="M405.886,202.58v-1.223c.343-.049.93-.147.881-.587,0-1.419-9.638-13.405-10.127-14.09l-.734.587v6.947c0,1.223-.147,5.626.636,6.6a1.462,1.462,0,0,0,1.223.489v1.272H386.8v-1.272a1.464,1.464,0,0,0,1.224-.489c.782-.978.636-5.382.636-6.6V177.188c0-1.223.147-5.626-.636-6.6a1.464,1.464,0,0,0-1.224-.489v-1.272h10.959v1.272a1.462,1.462,0,0,0-1.223.489c-.783.979-.636,5.382-.636,6.6v7.045c1.027-1.077,11.595-11.791,12.084-12.916a1.394,1.394,0,0,0,.2-.587.674.674,0,0,0-.881-.636v-1.272H416.8v1.272c-2.251.147-5.333,3.229-6.9,4.648l-8.807,7.974c4.012,4.843,8.121,9.638,12.036,14.579,1.223,1.566,2.984,3.914,5.186,4.012v1.272Z" transform="translate(-346.932 -168.577)" fill="#3b56a6"/>
            <path id="Path_142" data-name="Path 142" d="M530.2,202.58v-1.223c.636,0,1.076-.294,1.076-.978a11.246,11.246,0,0,0-.734-2.544L522.957,176.6l-6.7,19.178a18.872,18.872,0,0,0-1.174,4.5.914.914,0,0,0,.978,1.027v1.272h-7.828l-.049-1.321a1.676,1.676,0,0,0,.88-.2c.93-.881,3.083-6.458,3.572-7.73l9.687-24.511h5.822L537,193.333c.441,1.223,2.5,7.926,4.159,7.974v1.272Z" transform="translate(-427.017 -168.577)" fill="#3b56a6"/>
            <path id="Path_143" data-name="Path 143" d="M656.806,202.448c-9.491,0-17.613-7.192-17.613-16.879,0-9.736,8.562-17.466,18.1-17.466,9.491,0,17.76,7.241,17.76,16.977C675.055,194.914,666.395,202.448,656.806,202.448Zm-.587-31.606c-6.849,0-9.589,4.8-9.589,11.057,0,6.7,3.033,17.955,11.4,17.955,6.213,0,9.589-5.137,9.589-10.91C667.618,182.291,664.536,170.843,656.219,170.843Z" transform="translate(-513.459 -168.103)" fill="#3b56a6"/>
            <path id="Path_144" data-name="Path 144" d="M808.344,175.525c-.294-4.4-6.018-4.208-8.807-4.208h-.391c-1.957,0-3.473.1-4.207,2.1a64.568,64.568,0,0,0-.245,7.045v13.5c0,1.174-.2,6.116.734,7a1.547,1.547,0,0,0,1.125.343v1.272H785.594v-1.321a1.55,1.55,0,0,0,1.125-.343c.93-.88.734-5.724.734-6.947V177.384c0-1.174.2-6.018-.734-6.947a1.548,1.548,0,0,0-1.125-.343v-1.272h23.533l.783,6.7Z" transform="translate(-610.055 -168.577)" fill="#3b56a6"/>
            <path id="Path_145" data-name="Path 145" d="M915.469,202.58H891.006v-1.321a1.55,1.55,0,0,0,1.125-.343c.93-.88.734-5.724.734-6.947V177.384c0-1.174.2-6.018-.734-6.947a1.549,1.549,0,0,0-1.125-.343v-1.272h24.413l.636,5.724h-1.615c-.734-3.376-5.969-3.229-8.611-3.229h-1.272c-1.957,0-3.473.1-4.207,2.1a64.488,64.488,0,0,0-.245,7.045v3.327h4.99c1.908,0,4.4-.245,4.452-2.691h1.517v7.73h-1.517c-.049-2.593-2.838-2.691-4.795-2.691h-4.648v7c0,7.241,1.076,6.507,7.828,6.507,3.18,0,6.458.342,7.779-3.18l1.614.587Z" transform="translate(-679.607 -168.577)" fill="#3b56a6"/>
            <path id="Path_146" data-name="Path 146" d="M1029.125,202.58h-26.664v-1.517l12.769-15.607-12.28-15.118.93-1.517h25.2l1.027,6.409h-1.419c-1.174-3.963-6.067-3.376-9.394-3.376h-5.969l8.807,11.35-11.449,14.237c1.566.1,4.6.2,6.751.2s5.92-.1,7.437-.2c3.18-.2,3.767-.587,4.99-3.18l1.566.587Z" transform="translate(-753.146 -168.577)" fill="#3b56a6"/>
          </g>
          <g id="Group_1073" data-name="Group 1073" transform="translate(31.511)">
            <rect id="Rectangle_971" data-name="Rectangle 971" width="0.402" height="40.275" fill="#001423"/>
          </g>
          <g id="Group_1074" data-name="Group 1074" transform="translate(76.348)">
            <rect id="Rectangle_972" data-name="Rectangle 972" width="0.402" height="40.275" fill="#001423"/>
          </g>
          <g id="Group_1075" data-name="Group 1075" transform="translate(119.769)">
            <rect id="Rectangle_973" data-name="Rectangle 973" width="0.402" height="40.275" transform="translate(0)" fill="#001423"/>
          </g>
          <g id="Group_1076" data-name="Group 1076" transform="translate(168.539)">
            <rect id="Rectangle_974" data-name="Rectangle 974" width="0.402" height="40.275" fill="#001423"/>
          </g>
          <g id="Group_1077" data-name="Group 1077" transform="translate(204.723)">
            <rect id="Rectangle_975" data-name="Rectangle 975" width="0.402" height="40.275" fill="#001423"/>
          </g>
          <g id="Group_1078" data-name="Group 1078" transform="translate(242.796)">
            <rect id="Rectangle_976" data-name="Rectangle 976" width="0.402" height="40.275" fill="#001423"/>
          </g>
        </g>
      </g>
      <g id="Group_1081" data-name="Group 1081" transform="translate(110.668 51.211)">
        <path id="Path_147" data-name="Path 147" d="M607.7,327.13c-4.254-.056-8.535-.111-12.789,0v-1.362c2.836-2.336,8.313-7.98,8.313-11.816,0-2.2-1.223-3.614-3.475-3.614a6.226,6.226,0,0,0-3.114,1.473l-.918-1.307a10.084,10.084,0,0,1,6.033-2.2c2.836,0,5.672,1.668,5.672,4.782,0,3.615-3.392,6.728-5.894,8.953-.918.806-1.835,1.668-2.808,2.419h9.7Z" transform="translate(-594.908 -308.224)" fill="#001423"/>
        <path id="Path_148" data-name="Path 148" d="M644.462,327.218c-5.032,0-6.645-4.7-6.645-8.952,0-5.2,2.169-10.2,8.091-10.2,5.06,0,6.395,5.116,6.395,9.258C652.3,322.158,649.967,327.218,644.462,327.218Zm.556-17.71c-3.253,0-3.253,6.784-3.253,8.953,0,2.641.167,7.2,3.781,7.2,2.975,0,2.808-6.756,2.808-8.758C648.354,314.651,648.271,309.508,645.018,309.508Z" transform="translate(-623.22 -308.062)" fill="#001423"/>
        <path id="Path_149" data-name="Path 149" d="M694.985,327.13c-4.254-.056-8.535-.111-12.789,0v-1.362c2.835-2.336,8.313-7.98,8.313-11.816,0-2.2-1.224-3.614-3.475-3.614a6.224,6.224,0,0,0-3.114,1.473L683,310.5a10.084,10.084,0,0,1,6.033-2.2c2.836,0,5.672,1.668,5.672,4.782,0,3.615-3.392,6.728-5.895,8.953-.918.806-1.835,1.668-2.808,2.419h9.7Z" transform="translate(-652.501 -308.224)" fill="#001423"/>
        <path id="Path_150" data-name="Path 150" d="M731.352,327.383a4.816,4.816,0,0,1-3.142-.918l1.029-1.807a4.58,4.58,0,0,0,2.669,1.112,3.811,3.811,0,0,0,3.753-4.115c0-2.975-2.336-3.753-4.865-3.781v-1.223c2.057-.306,4.309-1.557,4.309-3.892a2.345,2.345,0,0,0-2.53-2.558,5.861,5.861,0,0,0-3,1.251l-.75-1.279a11.336,11.336,0,0,1,5.421-2.03c2.169,0,4.977,1,4.977,3.587,0,2.335-2.753,4-4.7,4.754h.195c2.7,0,5.088,1.362,5.088,4.309C739.8,324.825,734.91,327.383,731.352,327.383Z" transform="translate(-682.862 -308.116)" fill="#001423"/>
      </g>
    </g>
  </g>
</svg>
